<?xml version="1.0" encoding="UTF-8"?>
<svg id="Capa_2" data-name="Capa 2" xmlns="http://www.w3.org/2000/svg" viewBox="0 0 923.27 234.19">
  <defs>
    <style>
      .cls-1, .cls-2, .cls-3 {
        fill: #fff;
      }

      .cls-2 {
        letter-spacing: -.08em;
      }

      .cls-2, .cls-3 {
        font-family: MontserratRoman-ExtraBold, Montserrat;
        font-size: 120.68px;
        font-variation-settings: 'wght' 800;
        font-weight: 700;
      }

      .cls-3 {
        letter-spacing: -.08em;
      }
    </style>
  </defs>
  <g id="Capa_1-2" data-name="Capa 1">
    <g>
      <path class="cls-1" d="M139.42,155.19c-9.64,9.56-21.61,15.41-34.09,17.52v-21.5c7.12-1.85,13.86-5.55,19.43-11.12,8.14-8.14,12.29-18.77,12.46-29.47v-1.34c-.16-10.68-4.3-21.32-12.46-29.47-5.57-5.57-12.31-9.27-19.43-11.1v-21.48c12.56,2.13,24.61,8.04,34.3,17.72,2.24,2.24,4.27,4.61,6.11,7.09h35.55c-4.59-10.53-11.16-20.39-19.76-28.99-15.72-15.72-35.64-24.75-56.19-27.07h0s0-8.08,0-8.08h-21.47s0,8.08,0,8.08c-20.54,2.32-40.47,11.35-56.19,27.07-36.9,36.9-36.9,96.94,0,133.84,15.72,15.72,35.64,24.74,56.19,27.06v8.09s21.47,0,21.47,0v-8.09c20.55-2.32,40.47-11.35,56.19-27.07,6.58-6.58,11.97-13.91,16.21-21.71h-38.31ZM90.88,46.44V14.91s7.44,0,7.44,0v.54s0,30.98,0,30.98v21.08c-2.48-.21-4.97-.21-7.44,0v-21.08ZM49.58,155.01h0c-24.83-24.84-24.82-65.23,0-90.05,9.68-9.68,21.72-15.58,34.29-17.71v21.49c-7.1,1.84-13.83,5.53-19.38,11.09-16.65,16.65-16.69,43.66-.04,60.31,5.57,5.57,12.31,9.26,19.42,11.1v21.49c-12.57-2.13-24.61-8.03-34.29-17.71ZM98.31,204.49v.54s-7.44,0-7.44,0v-52.61c2.48.21,4.97.21,7.44,0v21.09s0,30.98,0,30.98ZM93.86,131.21c-2.69,1.65-6.32,2.26-10.64,2.13h-10.6v-11.74c.57,1.66,1.26,3.7,2.21,6.25,5.93-16.01,2.1-12.18,18.1-18.1-16.01-5.93-12.18-2.1-18.1-18.1-.94,2.55-1.64,4.59-2.21,6.25v-11.74h10.6c10.11-.07,15.59,3.57,15.72,11.86v19.48s0,0,0,0c0,.05,0,.11,0,.16v.38c.05,2.56.93,5.73,3.33,5.79,2.15.07,3.19-1.42,3.19-4.25v-33.43h10.67s0,33.43,0,33.43c-.21,9.7-5.13,13.75-13.99,13.75-3.48,0-6.2-.77-8.27-2.13Z"/>
      <path class="cls-1" d="M531.93,10.33v83.63c0,7.08-2.6,10.79-7.97,10.62-5.98-.16-8.19-8.09-8.32-14.49v-.96c0-.13,0-.27,0-.4h0v-48.72c-.35-20.74-14.04-29.84-39.34-29.68h-26.51v29.36c1.42-4.16,3.16-9.27,5.52-15.64,14.83,40.04,5.25,30.46,45.29,45.29-40.04,14.83-30.46,5.25-45.29,45.29-2.36-6.37-4.1-11.48-5.52-15.64v29.36h26.51c10.8.31,19.9-1.22,26.62-5.34,5.19,3.42,11.99,5.34,20.69,5.34,22.18,0,34.48-10.12,35-34.39V10.33h-26.69Z"/>
      <text class="cls-3" transform="translate(183.77 102.57) scale(1.03 1)"><tspan x="0" y="0">Club</tspan></text>
      <text class="cls-2" transform="translate(183.77 202.93) scale(1.03 1)"><tspan x="0" y="0">Radio Online</tspan></text>
    </g>
  </g>
</svg>